<?xml version="1.0" encoding="UTF-8"?>
<svg version="1.1" viewBox="0 0 150 150" xmlns="http://www.w3.org/2000/svg">
 <defs>
  <filter id="c" x="-.10187" y="-.11468" width="1.2038" height="1.2294">
   <feGaussianBlur stdDeviation="13.58581"/>
  </filter>
  <filter id="d">
   <feGaussianBlur stdDeviation="8.28591"/>
  </filter>
 </defs>
 <g transform="translate(0,-902.36)">
  <path transform="matrix(.14144 0 0 .13574 34.542 887.51)" d="m155.56 195.35c394.55-14.474 582.66-2.8284 582.66-2.8284l-8.49 517.6s-60.798-404.13-574.17-514.77z" fill="#d0ecfb" fill-rule="evenodd" filter="url(#d)" opacity=".42163"/>
  <path transform="matrix(.1866 0 0 .18483 1.4737 883.81)" d="m376.41 855.49-320.06 1.5537s3.5078-63.636 4.6611-284.33c74.692 302.57 315.4 282.77 315.4 282.77z" fill="#999" fill-rule="evenodd" filter="url(#c)" opacity=".25475"/>
  <path d="m39.922 986.83s0.44838 30.257-12.366 36.471c8.6934-14.44 11.88-36.36 12.366-36.471z" fill-rule="evenodd" stroke="#000" stroke-width=".11944"/>
  <path d="m66.875 1009.9s-27.669 1.8148-30.262 16.492c15.537-15.436 30.315-15.934 30.262-16.492z" fill-rule="evenodd" stroke="#000" stroke-width=".11944"/>
  <path d="m64.337 974.13s-5.5526 15.937-20.402 10.637c11.203-2.3516 19.996-10.961 20.402-10.637z" fill-rule="evenodd" stroke="#000" stroke-width=".11944"/>
  <path d="m75.92 981.53s-9.177 12.994-8.8973 28.214c-3.566-16.929 8.5062-28.214 8.8973-28.214z" fill-rule="evenodd" stroke="#000" stroke-width=".09414"/>
  <path d="m72.467 963.47c2.8972-14.796 10.027-25.677 23.865-32.594-8.1834 5.2873-11.098 11.051-15.832 17.336-4.9129 7.7041-7.2522 13.771-8.0334 15.259z" fill-rule="evenodd" stroke="#000" stroke-width=".15035"/>
  <path d="m75.142 969.58c12.024 6.7972 22.106-9.0825 48.118-36.161-9.8208 17.704-27.052 38.936-41.523 38.857-2.2653-0.0637-5.1853-0.0835-6.5959-2.6962z" fill-rule="evenodd" stroke="#000" stroke-width=".20657"/>
  <path d="m66.705 969.79c-0.33358 3.8662 2.7938 8.8959 5.8335 9.4305 3.1253 0.54962 7.7195-1.3898 7.7195-1.3898s-10.412 3.7278-13.553-8.0407z" fill-rule="evenodd" stroke="#000" stroke-width=".11944"/>
  <path d="m24.805 1032.6c9.976-16.209 24.375-30.278 24.375-30.278-2.322-3.8485 2.388-9.404 6.3517-5.1213 2.8843 6.9308-4.1865 8.4538-5.7165 5.93-4.706 5.203-14.66 20.612-25.01 29.47z" fill-rule="evenodd" stroke="#000" stroke-width=".11944"/>
  <path d="m32.005 992.89c3.1074 0.6127 6.1558-0.7141 8.1886-3.564 0.88078-1.2349 0.95953-1.284 0.91636-0.5719-0.1064 1.7547-1.1409 4.5458-2.1102 5.6936-0.89247 1.0568-1.1675 1.1879-2.5682 1.2252-1.6317 0.043-3.6968-0.86-5.4349-2.3781l-0.89246-0.7793 1.9005 0.3747zm5.3212 4.3583c0.99281-0.3316 1.4292-0.6963 2.3341-1.9507l1.113-1.5429 0.26282 1.2716c0.30516 1.4764 0.0723 2.8097-0.57913 3.3169-0.57764 0.4497-2.1612 0.3372-3.3989-0.2414l-0.95306-0.4456zm18.173 16.805c-1.558-2.6194-0.29806-4.4318 2.8677-4.125l1.0853 0.1051-1.4465 1.4653c-1.0976 1.1118-1.4788 1.7021-1.5802 2.447-0.16351 1.2009-0.26868 1.2131-0.92622 0.1076zm3.8682 3.428c-2.4557-3.4062-1.3309-6.0917 3.2956-7.8691l2.0424-0.7847-1.4397 1.9187c-2.257 3.008-2.724 5.5376-1.5467 8.3798l0.5398 1.3034-1.0747-0.9597c-0.5912-0.5277-1.4086-1.4226-1.8166-1.9885zm-36.197-32.361-0.87016-1.1951 2.2011 1.1277c5.1803 2.654 10.821 3.1882 15.166 1.4361l2.0893-0.84256-0.62089 1.2814c-1.3875 2.8638-4.5439 4.8962-7.4929 4.8247-3.1301-0.076-7.8964-3.0943-10.473-6.6323zm40.879 35.446c-0.45389-0.6857-1.0088-1.711-1.2331-2.2785-0.61937-1.5669-0.54842-4.3379 0.14862-5.7751 0.62475-1.2896 3.2643-4.1728 4.0417-4.4148 0.24716-0.077 0.19085 0.7416-0.13922 2.0238-1.1847 4.6022 0.15324 10.262 3.4805 14.722l1.5456 2.0718-1.4535-0.7679c-1.9141-1.0111-5.3532-4.015-6.3899-5.5812zm-20.192-20.563c-1.5395-2.2877-2.2998-4.5427-2.4674-7.318-0.15814-2.6187-0.13486-2.7264 3.2363-14.996 0.99928-3.6369 1.034-7.3612 0.0924-9.8857-1.2351-3.3117-3.649-6.3443-12.334-15.495-1.9485-2.053-4.4253-4.8037-5.504-6.1126-9.547-11.584-10.54-21.642-3.2698-33.113 2.4926-3.9328 2.818-4.1022 1.4725-0.76655-4.3305 10.737-2.4833 19.621 6.1589 29.621 1.2725 1.4725 4.5597 4.9248 7.3047 7.6719 2.7451 2.747 5.6538 5.7694 6.4639 6.7164 4.7781 5.5852 6.5273 10.087 5.87 15.104-0.40925 3.1236-0.6461 3.8776-3.1705 10.097-1.085 2.6729-2.2359 5.7146-2.5574 6.759-1.3315 4.3254-1.2798 8.7872 0.14342 12.374 0.57022 1.4372 0.59903 1.7265 0.1308 1.3138-0.33041-0.2909-1.0366-1.1774-1.5696-1.9694zm8.3952 6.559c3.0803 0.6955 7.0143 0.3203 10.318-0.9847 1.5205-0.6004 4.9004-2.3398 7.5106-3.8651 8.6845-5.0753 12.677-6.1988 17.598-4.9537 4.3514 1.1014 7.4264 2.9786 18.978 11.586 9.3562 6.971 14.957 9.4724 21.896 9.7803 4.2163 0.187 10.609-1.7381 14.653-4.412 0.95262-0.6299 1.7374-1.0683 1.744-0.9742 0.0235 0.3349-4.2678 4.0333-6.3621 5.4832-9.0555 6.2691-18.546 5.9396-30.03-1.0431-1.2974-0.7889-4.3043-2.8197-6.6821-4.5129-12.83-9.1365-15.908-10.684-20.634-10.376-2.6525 0.1728-4.6454 0.839-10.743 3.5911-2.9899 1.3496-6.1861 2.6459-7.1027 2.881-3.8394 0.9841-7.2858 0.6755-10.551-0.9448-2.7635-1.3712-2.9614-1.7898-0.59318-1.2551zm-34.084-29.111c-1.1959-1.5385-2.735-4.019-2.7918-4.4993-0.0223-0.18908 1.0273 0.47004 2.3325 1.4647 3.4099 2.5985 5.99 3.6887 13.898 5.8725 3.8567 1.065 7.6151 2.231 8.3518 2.5912 0.7368 0.36014 1.5809 0.76686 1.8758 0.90385 0.50408 0.23412 0.44383 0.29858-1.0046 1.0755-3.5696 1.9145-8.3066 1.9137-12.997-1e-3 -2.0797-0.84937-3.0034-1.4403-5.5781-3.5683-1.6971-1.4027-3.5363-3.13-4.087-3.8385zm53.237 46.118c-3.8904-5.3499-4.9158-11.026-2.8412-15.725l0.29385-0.6655 1.2155 1.6725c0.67391 0.9273 2.4943 4.6596 4.0853 8.376 3.1323 7.3173 4.7219 9.982 7.8437 13.151 1.9155 1.9442 1.9812 2.0532 1.0535 1.7479-3.5292-1.1617-9.4183-5.4869-11.651-8.5569zm-58.35-55.848c-1.2921-1.8567-2.9609-5.6679-3.2705-7.4687l-0.21005-1.2226 0.73036 1.1119c0.4017 0.61156 1.8732 2.1031 3.2699 3.3145 3.0082 2.6092 5.2899 3.8501 13.393 7.2846 6.8329 2.8963 8.4405 3.7733 11.078 6.0431 1.5187 1.307 2.3954 2.3254 3.3244 3.862 1.2498 2.0674 1.4006 2.9471 0.34926 2.0386-0.73587-0.63559-6.4394-2.8689-12.263-4.8014-2.6254-0.87124-5.8476-2.1051-7.1605-2.7419-3.1517-1.5288-7.6601-5.1489-9.2406-7.4199zm68.739 59.756c-1.7932-2.3178-3.5663-5.4013-6.572-11.429-2.4251-4.8632-3.907-7.4141-5.1139-8.802-0.48798-0.5613-0.42322-0.5773 0.81082-0.2009 2.3093 0.7043 5.2166 2.4809 6.7874 4.1475 2.1487 2.2799 3.4555 4.1713 7.347 10.634 4.9106 8.1545 8.2719 11.93 12.302 13.817l0.92857 0.4347-1.241-0.036c-1.9456-0.057-5.9089-1.1892-7.9843-2.282-2.263-1.1914-5.476-3.9698-7.2652-6.2824zm-69.015-69.693c-2.9707-3.8062-4.1208-7.1447-4.3356-12.586-0.0768-1.9448-0.0533-3.5421 0.0523-3.5495 0.10559-7e-3 0.42947 0.78192 0.71973 1.7541 0.29026 0.97215 1.1302 2.7514 1.8664 3.954 3.0028 4.9046 6.9675 8.4544 16.308 14.602 9.4898 6.2452 12.916 9.3596 14.703 13.365 0.87704 1.9661 1.414 4.6024 1.1625 5.7066-0.12131 0.53249-0.2392 0.41346-1.0818-1.0922-0.79874-1.4272-1.5104-2.1776-4.5802-4.829-3.4082-2.9436-4.0781-3.3885-10.758-7.1436-8.0871-4.5462-11.701-7.1638-14.056-10.182zm79.759 69.463c-0.79245-0.8693-3.2199-3.8963-5.3946-6.7266-2.1747-2.8304-4.7542-6.0702-5.7326-7.1998-2.2758-2.6276-6.1088-5.608-8.4412-6.5636-0.9892-0.4052-1.7307-0.8148-1.6479-0.9102 0.3751-0.4317 4.3296-0.2323 6.2252 0.3137 4.2452 1.2232 6.9149 3.3892 14.348 11.642 6.7589 7.5035 9.9175 10.563 13.012 12.604 2.8833 1.9012 6.4174 3.4239 8.9061 3.837 0.99057 0.1644 1.8066 0.3785 1.8134 0.4757 7e-3 0.097-1.5679 0.3461-3.4993 0.5532-7.9028 0.8472-13.647-1.5059-19.589-8.0247zm-49.226-51.232c-1.4558-5.1197-5.0369-9.329-13.711-16.117-7.3289-5.735-12.142-10.223-13.937-12.996-3.6942-5.7065-4.5772-12.355-2.5928-19.522 0.53053-1.9162 2.2132-6.4069 2.5427-6.7861 0.0638-0.0734-0.0747 0.90749-0.30781 2.1797-0.85949 4.6914-0.19451 10.002 1.7961 14.346 2.264 4.9402 5.5586 8.8936 14.12 16.943 9.4579 8.8928 11.888 12.182 13.093 17.721 0.38236 1.7568 0.21126 6.3162-0.23655 6.3122-0.0964-2e-4 -0.4413-0.93734-0.76651-2.081zm31.265 28.523c0.38995-0.4488 4.1604-1.2039 5.7778-1.1571 0.98639 0.029 2.9346 0.3764 4.3293 0.773 4.2699 1.2144 5.5318 2.0528 19.886 13.213 2.7513 2.139 5.8592 4.3005 7.5346 5.2401 7.0974 3.9801 13.528 4.8818 20.552 2.8818 1.593-0.4536 2.8427-0.7629 2.777-0.6873-0.0657 0.076-1.0957 0.6843-2.2889 1.3526-9.3892 5.259-17.492 5.7141-25.137 1.4123-3.1689-1.7829-7.8619-5.7318-14.019-11.796-6.7801-6.6776-12.105-9.9892-17.238-10.721-1.281-0.1826-2.259-0.4126-2.1734-0.5112z" fill="#fff" stroke="#000"/>
 </g>
</svg>
